<svg id="config-icon" xmlns="http://www.w3.org/2000/svg" xmlns:xlink="http://www.w3.org/1999/xlink" viewBox="0 0 242.76 242.76">
  <defs>
    <linearGradient id="linear-gradient" x1="151.35" y1="37.74" x2="148.43" y2="280.7" gradientUnits="userSpaceOnUse">
      <stop offset="0.18" stop-color="var(--accent-light)"/>
      <stop offset="1" stop-color="var(--accent-dark)"/>
    </linearGradient>
  </defs>
  <path d="M270.08,137.46c-.41-11.28-19.24-9.78-26.48-8.78a95.28,95.28,0,0,0-9.49-25c3.94-3.85,9.19-9.09,14-14.2,9.16-9.82-11.79-23.76-22-33.29-8.27-7.7-20.53,6.7-24.93,12.52a95.28,95.28,0,0,0-24.36-11c.06-5.52.07-12.93-.17-19.91-.46-13.42-25.14-8.47-39.12-8-11.28.41-9.78,19.24-8.78,26.48a95.28,95.28,0,0,0-25,9.49c-3.85-3.94-9.09-9.19-14.2-14C79.7,42.77,65.76,63.72,56.23,74c-7.7,8.27,6.7,20.53,12.52,24.93a95.28,95.28,0,0,0-11,24.36c-5.52-.06-12.93-.07-19.91.17-13.42.46-8.47,25.14-8,39.12.41,11.28,19.24,9.78,26.48,8.78a95.28,95.28,0,0,0,9.49,25c-3.94,3.85-9.19,9.09-14,14.2-9.16,9.82,11.79,23.76,22,33.29,8.27,7.7,20.53-6.7,24.93-12.52a95.28,95.28,0,0,0,24.36,10.95c-.06,5.52-.07,12.93.17,19.91.46,13.42,25.14,8.47,39.12,8,11.28-.41,9.78-19.24,8.78-26.48a95.28,95.28,0,0,0,25-9.49c3.85,3.94,9.09,9.19,14.2,14,9.82,9.16,23.76-11.79,33.29-22,7.7-8.27-6.7-20.53-12.52-24.93a95.28,95.28,0,0,0,10.95-24.36c5.52.06,12.93.07,19.91-.17C275.53,176.12,270.58,151.44,270.08,137.46ZM150,204a54,54,0,1,1,54-54A54,54,0,0,1,150,204Z" transform="translate(-28.62 -28.62)" fill-rule="evenodd" fill="url(#linear-gradient)"/>
</svg>
