<svg id="peasant" xmlns="http://www.w3.org/2000/svg" xmlns:xlink="http://www.w3.org/1999/xlink" viewBox="0 0 350.76 541.84">
  <defs>
    <radialGradient id="radial-gradient" cx="171.03" cy="476.21" r="28.91" gradientUnits="userSpaceOnUse">
      <stop offset="0.26" stop-color="#f9c4b2"/>
      <stop offset="0.41" stop-color="#f6c0ae"/>
      <stop offset="0.57" stop-color="#efb5a1"/>
      <stop offset="0.74" stop-color="#e2a38b"/>
      <stop offset="0.9" stop-color="#d18a6d"/>
      <stop offset="1" stop-color="#c57959"/>
    </radialGradient>
    <radialGradient id="radial-gradient-2" cx="94.02" cy="489.49" r="24.02" xlink:href="#radial-gradient"/>
    <linearGradient id="linear-gradient" x1="156.77" y1="514.76" x2="231.77" y2="514.76" gradientUnits="userSpaceOnUse">
      <stop offset="0.18" stop-color="#7f4734"/>
      <stop offset="0.46" stop-color="#7b4431"/>
      <stop offset="0.77" stop-color="#6e3b29"/>
      <stop offset="1" stop-color="#5f3120"/>
    </linearGradient>
    <linearGradient id="linear-gradient-2" x1="51.93" y1="526.63" x2="111.82" y2="526.63" xlink:href="#linear-gradient"/>
    <linearGradient id="linear-gradient-3" x1="69.93" y1="429.98" x2="191.12" y2="429.98" xlink:href="#linear-gradient"/>
    <linearGradient id="linear-gradient-4" x1="303.42" y1="466.08" x2="345.53" y2="466.08" gradientUnits="userSpaceOnUse">
      <stop offset="0.18" stop-color="var(--accent-light)"/>
      <stop offset="1" stop-color="var(--accent-dark)"/>
    </linearGradient>
    <radialGradient id="radial-gradient-3" cx="329.41" cy="387.19" fx="442.7522279413105" fy="387.18952072429056" r="114.49" gradientUnits="userSpaceOnUse">
      <stop offset="0.17" stop-color="#fafafa" stop-opacity="0.3"/>
      <stop offset="0.99" stop-color="#efefef" stop-opacity="0.3"/>
    </radialGradient>
    <radialGradient id="radial-gradient-4" cx="331.83" cy="277.77" fx="343.38697952418767" r="53.38" gradientUnits="userSpaceOnUse">
      <stop offset="0.17" stop-color="#2d2d29"/>
      <stop offset="0.59" stop-color="#292926"/>
      <stop offset="0.99" stop-color="#1e1e1e"/>
    </radialGradient>
    <radialGradient id="radial-gradient-5" cx="137.13" cy="215.39" r="39.44" gradientUnits="userSpaceOnUse">
      <stop offset="0.12" stop-color="#f9c4b2"/>
      <stop offset="0.3" stop-color="#f6c0ae"/>
      <stop offset="0.49" stop-color="#efb5a1"/>
      <stop offset="0.69" stop-color="#e2a38b"/>
      <stop offset="0.89" stop-color="#d18a6d"/>
      <stop offset="1" stop-color="#c57959"/>
    </radialGradient>
    <radialGradient id="radial-gradient-6" cx="159.11" cy="131.09" fx="188.8532939227365" fy="83.07324139501407" r="124.61" xlink:href="#radial-gradient-5"/>
    <linearGradient id="linear-gradient-5" x1="153.98" y1="-10.28" x2="140.39" y2="159.91" gradientUnits="userSpaceOnUse">
      <stop offset="0.24" stop-color="#dbae79"/>
      <stop offset="1" stop-color="#ae7830"/>
    </linearGradient>
    <linearGradient id="linear-gradient-6" x1="161.81" y1="265.43" x2="104.94" y2="384.62" gradientUnits="userSpaceOnUse">
      <stop offset="0.18" stop-color="#f7ebda"/>
      <stop offset="0.47" stop-color="#f5e7d7"/>
      <stop offset="0.78" stop-color="#efdad0"/>
      <stop offset="1" stop-color="#e8ccc8"/>
    </linearGradient>
    <linearGradient id="linear-gradient-7" x1="147.16" y1="314.89" x2="142.71" y2="335.03" xlink:href="#linear-gradient"/>
    <linearGradient id="linear-gradient-8" x1="157.74" y1="328.62" x2="152.77" y2="351.06" xlink:href="#linear-gradient"/>
    <linearGradient id="linear-gradient-9" x1="114.68" y1="330.09" x2="111.27" y2="345.5" xlink:href="#linear-gradient"/>
    <radialGradient id="radial-gradient-7" cx="286.95" cy="269.61" fx="299.8769387979489" fy="263.2697669459385" r="59.75" gradientUnits="userSpaceOnUse">
      <stop offset="0.17" stop-color="#f9c4b2"/>
      <stop offset="0.33" stop-color="#f6c0ae"/>
      <stop offset="0.52" stop-color="#efb5a1"/>
      <stop offset="0.7" stop-color="#e2a38b"/>
      <stop offset="0.89" stop-color="#d18a6d"/>
      <stop offset="1" stop-color="#c57959"/>
    </radialGradient>
    <linearGradient id="linear-gradient-10" x1="129.7" y1="348.05" x2="124.97" y2="369.43" xlink:href="#linear-gradient"/>
    <linearGradient id="linear-gradient-11" x1="130.7" y1="337.47" x2="127.35" y2="352.64" xlink:href="#linear-gradient"/>
    <linearGradient id="linear-gradient-12" x1="117.09" y1="339.49" x2="116.22" y2="343.42" gradientUnits="userSpaceOnUse">
      <stop offset="0.18" stop-color="#d87644"/>
      <stop offset="0.33" stop-color="#d47443"/>
      <stop offset="0.49" stop-color="#c76c3f"/>
      <stop offset="0.65" stop-color="#b16038"/>
      <stop offset="0.82" stop-color="#934f2f"/>
      <stop offset="0.99" stop-color="#6d3a23"/>
      <stop offset="1" stop-color="#6b3922"/>
    </linearGradient>
    <linearGradient id="linear-gradient-13" x1="217" y1="252.12" x2="198.86" y2="334.12" xlink:href="#linear-gradient-6"/>
    <linearGradient id="linear-gradient-14" x1="67.03" y1="222.13" x2="54.8" y2="277.4" xlink:href="#linear-gradient-6"/>
    <linearGradient id="linear-gradient-15" x1="125.08" y1="272.62" x2="67.57" y2="393.16" xlink:href="#linear-gradient-4"/>
    <linearGradient id="linear-gradient-16" x1="197.03" y1="256.87" x2="166.88" y2="393.18" xlink:href="#linear-gradient-4"/>
    <radialGradient id="radial-gradient-8" cx="80.47" cy="287.02" fx="93.92664767257855" fy="280.4267317693707" r="62.19" xlink:href="#radial-gradient-7"/>
  </defs>
  <g id="Legs">
    <path d="M178.37,468.89s3.3,28.47,5.41,31.53-15.76,6.82-20,0-8-19.3-7.53-25.65S178.37,468.89,178.37,468.89Z" transform="translate(-11.12 -6.5)" stroke="#c57959" stroke-miterlimit="10" fill="url(#radial-gradient)"/>
    <path d="M107.55,483.24s-4.72,26.82-8.13,26.59l-24.11-1.65S81.67,481.12,88,479,107.55,483.24,107.55,483.24Z" transform="translate(-11.12 -6.5)" stroke="#c57959" stroke-miterlimit="10" fill="url(#radial-gradient-2)"/>
  </g>
  <g id="Boots">
    <path d="M167.08,496.89c-4,2.4-12,6.58-7.3,23.05,0,0-5.69,5.42-1.43,9.18s27.08,16.47,72-1.88c0,0,1.41-1.18,0-3.3s3.14-6.11.63-8.94-23-5.41-32.86-16.94S167.08,496.89,167.08,496.89Z" transform="translate(-11.12 -6.5)" stroke="#6c3928" stroke-miterlimit="10" stroke-width="2" fill="url(#linear-gradient)"/>
    <path d="M68.14,507.59s30.11-5.65,39.41,3.88,2,28.59-8.13,30.71-42.22,13.76-46.81-7.06S68.14,507.59,68.14,507.59Z" transform="translate(-11.12 -6.5)" stroke="#6c3928" stroke-miterlimit="10" stroke-width="2" fill="url(#linear-gradient-2)"/>
  </g>
  <path id="Pants" d="M183.51,377.71c-4.2-2.47-31.37-11.65-31.37-11.65s-5.31,2.95-10.21,6.3c.15-1.32.23-2.06.23-2.06L85.43,398.58s5.65-14.87-8.82,19-1.06,64.59,0,71.65,31.41,5.29,38.82,0,8.12-36,5.29-39.18,1.77-3.53,8.11-9.88c3.13-3.14,6.42-20.24,8.95-36.73,3.59,14,8.23,34.16,7.87,43.79-.57,15.53-10.71,38.12,0,38.12s33.58-18,37.86-10.59,7.61-26.83,7.61-26.83S187.7,380.18,183.51,377.71Z" transform="translate(-11.12 -6.5)" stroke="#6c3928" stroke-miterlimit="10" stroke-width="2" fill="url(#linear-gradient-3)"/>
  <g id="Eyedropper">
    <path id="Paint" d="M342.56,411.09c1.61,28.7,3,54.65,3,60.15,0,13.41-8.47,33.18-8.47,33.18-2.47,20.11-1.06,12.7-8.47,16.23s-8.82-16.59-8.82-16.59,2.47-1.41-9.53-26.47c-4.93-10.29-6.58-37.29-6.82-65.55,0,0,3.19-2.36,10.87,1.61s3.88,3.79,9.79,3.18,6.18,5.73,11.38,3.52S342.56,411.09,342.56,411.09Z" transform="translate(-11.12 -6.5)" fill="url(#linear-gradient-4)"/>
    <path id="EyedropperBody" d="M305.67,328.33s-7.42,124.2,4.58,149.26,9.53,26.47,9.53,26.47,1.42,20.12,8.83,16.59,6,3.88,8.47-16.23c0,0,8.47-19.77,8.47-33.18s-8.12-148.5-8.12-148.5S308.1,324.88,305.67,328.33Z" transform="translate(-11.12 -6.5)" stroke="#696361" stroke-miterlimit="10" fill="url(#radial-gradient-3)"/>
    <path id="EyeDropper_Head" data-name="EyeDropper Head" d="M307.08,311s-7.41-56.11,7.06-59.29,24,1.23,22.94,54.26c0,0,3.53,8.21,20.82,5,0,0,5.3,14.21,1.77,14.34L288,333.52s-6.71-12.33,0-16.36C288,317.16,307.63,315.89,307.08,311Z" transform="translate(-11.12 -6.5)" stroke="#1e1e1e" stroke-miterlimit="10" stroke-width="2" fill="url(#radial-gradient-4)"/>
  </g>
  <polygon id="Neck" points="116.66 178.16 121.6 203.21 97.25 209.92 152.22 254.39 177.01 212.04 162.54 198.98 165.01 176.39 116.66 178.16" stroke="#c57959" stroke-miterlimit="10" stroke-width="2" fill="url(#radial-gradient-5)"/>
  <g id="Head">
    <path id="HeadCountour" d="M221.25,129.94c-.67,37.71-22.57,68.35-67.41,67.42-37.22-.78-70.2-28-71-65.18-.81-38.05,33.33-65.69,71-69.65C201,57.58,222,86.87,221.25,129.94Z" transform="translate(-11.12 -6.5)" stroke="#c57959" stroke-miterlimit="10" stroke-width="2" fill="url(#radial-gradient-6)"/>
    <path id="Mouth" d="M138.55,158.06c9.47,7.06,53.23,8,53.23,8l-3.06,1.88-47.66-3.76S129.08,151,138.55,158.06Z" transform="translate(-11.12 -6.5)" fill="#1e1e1e"/>
    <g id="Eyes">
      <g id="Right_Eye" data-name="Right Eye">
        <ellipse cx="135.58" cy="114.39" rx="5.65" ry="17.41" fill="#1e1e1e"/>
        <path d="M153.84,93.88a30.84,30.84,0,0,0-30.59,8.47l2.83,2.82s12.77-10.82,25-8Z" transform="translate(-11.12 -6.5)" fill="#1e1e1e"/>
      </g>
      <g id="Left_Eye" data-name="Left Eye">
        <ellipse cx="179.43" cy="114.39" rx="5.65" ry="17.41" fill="#1e1e1e"/>
        <path d="M179.07,92.18a30.84,30.84,0,0,1,30.59,8.47l-2.82,2.82s-12.78-10.82-25-8Z" transform="translate(-11.12 -6.5)" fill="#1e1e1e"/>
      </g>
    </g>
  </g>
  <path d="M29.34,102.11C47.2,84.3,42.17,64.79,100.52,56.85c0,0,41.71-98.12,99.12-14.82,0,0,77,8.82,63.59,18.47S13.88,117.54,29.34,102.11Z" transform="translate(-11.12 -6.5)" stroke="#ae7830" stroke-miterlimit="10" stroke-width="4" fill="url(#linear-gradient-5)"/>
  <path id="Shirt" d="M92.84,330.06c2.3,1.31-10.22-51.1-2.47-83.64,7.45-31.27-2.82-24.71,4.24-30.71s29.64-16.24,29.64-16.24l34.59,36.71,22.24-32.12s22.94,5.3,24.35,11.3S181.78,320.18,182.49,328.3s12.71,60.35,12.71,60.35-29.3-18.35-58.59-10.59-63.18,19.77-63.18,19.77Z" transform="translate(-11.12 -6.5)" stroke="#bfac9f" stroke-miterlimit="10" stroke-width="2" fill="url(#linear-gradient-6)"/>
  <g id="Belt">
    <path d="M105.14,318.42s72.08,5.64,82.45,0,0,9.52,0,9.52-91.53,2.12-88.4-3.52S105.14,318.42,105.14,318.42Z" transform="translate(-11.12 -6.5)" fill="url(#linear-gradient-7)"/>
    <path d="M178.2,325.47S141.14,345.59,132,344.53s2.94,2.74,2.94,2.74,48.24-15.09,48.59-19S178.2,325.47,178.2,325.47Z" transform="translate(-11.12 -6.5)" fill="url(#linear-gradient-8)"/>
    <path d="M103.37,322.74s7.21,21.79,15.88,24.53,2.12-2.74,2.12-2.74-10.23-21.79-14.12-21.79Z" transform="translate(-11.12 -6.5)" fill="url(#linear-gradient-9)"/>
  </g>
  <path id="Left_Arm" data-name="Left Arm" d="M228.14,290.84s46.91-33.44,57.74-36.57c0,0,18.53-16.31,31-8.39s3.6,47.61-19.25,40.15c0,0-4.81-3.85-6-.48S276.26,334,224.29,330c0,0-18,1.13-10.35-20.09S228.14,290.84,228.14,290.84Z" transform="translate(-11.12 -6.5)" stroke="#c57959" stroke-miterlimit="10" fill="url(#radial-gradient-7)"/>
  <g id="Pouch">
    <path d="M140.46,342.48s5.62,22.52-3.56,24.29S115,371,114,363.59,115,341,118.9,341,140.46,342.48,140.46,342.48Z" transform="translate(-11.12 -6.5)" fill="url(#linear-gradient-10)"/>
    <path d="M114,335.36s31.27-5.3,31.69,2.11,2.25,11.65-5.19,13.06-32.15,2.12-28.62-5.29S114,335.36,114,335.36Z" transform="translate(-11.12 -6.5)" fill="url(#linear-gradient-11)"/>
    <circle cx="116.8" cy="340.77" r="2.74" fill="url(#linear-gradient-12)"/>
  </g>
  <g id="Sleeves">
    <path id="Left_Sleeve" data-name="Left Sleeve" d="M203,218.53s28.24,14.59,25.41,51.06c0,0,8.76,1.18,4.94,10.59-5.12,12.62-14.13,55.22-12,58.35,3.51,5.16-26.11-8.47-29.64-48.23S203,218.53,203,218.53Z" transform="translate(-11.12 -6.5)" stroke="#bfac9f" stroke-miterlimit="10" stroke-width="2" fill="url(#linear-gradient-13)"/>
    <path id="Right_Sleeve" data-name="Right Sleeve" d="M108.37,210.77c-2.61-1.65-51.94,15.13-64.94,24-11.38,7.77-6.71,4.94-6.71,4.94s-7.41-1.41-13,1.06S9.2,260.53,13.08,262.65s50.47-5.29,55.41,12,4.94-3.53,4.94-3.53,25.77,5.65,32.47-15.18S108.37,210.77,108.37,210.77Z" transform="translate(-11.12 -6.5)" stroke="#bfac9f" stroke-miterlimit="10" stroke-width="2" fill="url(#linear-gradient-14)"/>
  </g>
  <g id="Jacket">
    <path d="M93.55,213.94l28.94-16.56s21.54,60.21,10.94,70.56c-24.71,24.14-19.26,138-10.59,134.12,0,0-45.88,5.65-57.53,17.3S81.64,283.47,82.83,270.42,93.55,213.94,93.55,213.94Z" transform="translate(-11.12 -6.5)" stroke="#83475b" stroke-miterlimit="10" stroke-width="2" fill="url(#linear-gradient-15)"/>
    <path d="M176.14,201.59s28.69,8.28,32.11,11.65c4.42,4.34-12.75,37-10.58,52.59,2.32,16.71-11.3,67.41-7.42,75.88s9.18,53.29,10.95,56.12-32.12-3.18-32.12-3.18-6.36-84.35-3.88-99.18,4.23-59.64,4.23-70.58S176.14,201.59,176.14,201.59Z" transform="translate(-11.12 -6.5)" stroke="#83475b" stroke-miterlimit="10" stroke-width="2" fill="url(#linear-gradient-16)"/>
  </g>
  <path id="Right_Arm" data-name="Right Arm" d="M92.14,316.57c-1.06-8.11-32.83-24-23.3-44.47S17,260.81,17,260.81,9.55,268.54,21.2,286c10.86,16.32,41.7,46.09,46.06,53.54.16.41.33.82.52,1.25a.63.63,0,0,0,.21.42c10.77,23,40.4,8.48,43.51-7.72S92.14,316.57,92.14,316.57Z" transform="translate(-11.12 -6.5)" stroke="#c57959" stroke-miterlimit="10" fill="url(#radial-gradient-8)"/>
</svg>
