<svg id="redraw-icon" xmlns="http://www.w3.org/2000/svg" xmlns:xlink="http://www.w3.org/1999/xlink" viewBox="0 0 270.43 207.29">
  <defs>
    <linearGradient id="linear-gradient" x1="14.79" y1="150" x2="285.21" y2="300" gradientUnits="userSpaceOnUse">
      <stop offset="0.18" stop-color="var(--accent-light)"/>
      <stop offset="1" stop-color="var(--accent-dark)"/>
    </linearGradient>
  </defs>
  <path d="M261.54,177.69c-10.71,5.36-17.05,8.3-20.7,9.88q1.22-5.08,2-10.36A114.58,114.58,0,1,0,51.17,244.69c15.3,15.33,39.71,10.66,30.42-11.53-21.44-17.34-36.51-54.41-32.32-83.69a80.93,80.93,0,0,1,160.23,23,82.16,82.16,0,0,1-2.93,12.87c-2.38-3.56-19.95-30.64-39.06-26.12-22.65,5.35,8.34,43.83,8.34,43.83s25.4,45.8,41.12,37.79,57.8-39.5,65.36-50.83S282.47,167.2,261.54,177.69Z" transform="translate(-14.79 -46.35)" fill="url(#linear-gradient)"/>
</svg>
