<svg width="17" height="24" viewBox="0 0 17 24" fill="none" xmlns="http://www.w3.org/2000/svg">
<g clip-path="url(#clip0)">
<path d="M15.2136 5.58282L15.1968 5.57314L15.1577 5.56152C15.1734 5.57445 15.1931 5.58196 15.2136 5.58282Z" fill="#0D0C22"/>
<path d="M15.4598 7.29742L15.4409 7.30259L15.4598 7.29742Z" fill="#0D0C22"/>
<path d="M15.2211 5.58021C15.2187 5.57991 15.2163 5.57935 15.214 5.57855C15.2138 5.5801 15.2138 5.58166 15.214 5.58321C15.2166 5.58287 15.2191 5.58184 15.2211 5.58021Z" fill="#0D0C22"/>
<path d="M15.2139 5.58363H15.2173V5.58148L15.2139 5.58363Z" fill="#0D0C22"/>
<path d="M15.4443 7.29433L15.4728 7.27851L15.4834 7.2727L15.493 7.2627C15.4749 7.27028 15.4585 7.28101 15.4443 7.29433Z" fill="#0D0C22"/>
<path d="M15.263 5.62031L15.2352 5.59447L15.2163 5.58447C15.2264 5.60192 15.2432 5.6148 15.263 5.62031Z" fill="#0D0C22"/>
<path d="M8.26949 22.2582C8.24728 22.2676 8.22781 22.2823 8.21289 22.3008L8.23043 22.2899C8.24235 22.2793 8.25922 22.2667 8.26949 22.2582Z" fill="#0D0C22"/>
<path d="M12.3305 21.4786C12.3305 21.4542 12.3183 21.4587 12.3213 21.5458C12.3213 21.5388 12.3242 21.5317 12.3256 21.5249C12.3272 21.5094 12.3286 21.4942 12.3305 21.4786Z" fill="#0D0C22"/>
<path d="M11.9091 22.2582C11.8869 22.2676 11.8675 22.2823 11.8525 22.3008L11.8701 22.2899C11.882 22.2793 11.8989 22.2667 11.9091 22.2582Z" fill="#0D0C22"/>
<path d="M5.40966 22.4437C5.39279 22.4294 5.37216 22.42 5.3501 22.4164C5.36796 22.4249 5.38583 22.4333 5.39773 22.4397L5.40966 22.4437Z" fill="#0D0C22"/>
<path d="M4.76618 21.8423C4.76354 21.8169 4.75554 21.7923 4.74268 21.77C4.75179 21.7931 4.75941 21.8169 4.7655 21.8409L4.76618 21.8423Z" fill="#0D0C22"/>
<path d="M9.08906 11.0868C8.20558 11.4559 7.20297 11.8743 5.90355 11.8743C5.35997 11.8733 4.81901 11.8005 4.29541 11.658L5.19412 20.6614C5.22593 21.0376 5.40162 21.3885 5.68629 21.6443C5.97097 21.9 6.34381 22.0419 6.73078 22.0419C6.73078 22.0419 8.00504 22.1065 8.43026 22.1065C8.88787 22.1065 10.2601 22.0419 10.2601 22.0419C10.647 22.0419 11.0198 21.8999 11.3044 21.6441C11.589 21.3883 11.7646 21.0376 11.7964 20.6614L12.759 10.7123C12.3288 10.5689 11.8947 10.4737 11.4053 10.4737C10.5589 10.4734 9.87691 10.7578 9.08906 11.0868Z" fill="#FFDD00"/>
<path d="M1.51318 7.24561L1.5284 7.2595L1.53833 7.26532C1.53069 7.2579 1.52226 7.25129 1.51318 7.24561Z" fill="#0D0C22"/>
<path d="M16.9148 6.41468L16.7794 5.74859C16.658 5.15096 16.3823 4.58625 15.7537 4.37025C15.5521 4.30114 15.3235 4.27146 15.169 4.12841C15.0144 3.98539 14.9688 3.76325 14.933 3.55725C14.8668 3.17917 14.8047 2.80076 14.7368 2.42332C14.6783 2.09883 14.6319 1.73431 14.4794 1.43662C14.2808 1.03691 13.8689 0.803144 13.4592 0.648488C13.2493 0.572029 13.0351 0.50735 12.8176 0.454765C11.7942 0.1913 10.7181 0.0944382 9.66521 0.039227C8.40144 -0.0288182 7.13429 -0.00831713 5.8735 0.100573C4.9351 0.183874 3.94671 0.284611 3.05496 0.601349C2.72904 0.71726 2.39317 0.856417 2.14535 1.10213C1.84125 1.40401 1.74198 1.87089 1.964 2.24735C2.12185 2.51469 2.38921 2.70357 2.67279 2.82853C3.04215 2.98953 3.4279 3.11204 3.82363 3.19403C4.9255 3.43166 6.06675 3.52496 7.19244 3.56469C8.44014 3.61381 9.68981 3.57399 10.9315 3.44553C11.2386 3.4126 11.5451 3.3731 11.8511 3.32705C12.2114 3.27312 12.4427 2.81335 12.3365 2.49305C12.2094 2.11014 11.868 1.96162 11.4818 2.01942C11.4249 2.02812 11.3683 2.03619 11.3114 2.04426L11.2704 2.05008C11.1396 2.06623 11.0088 2.08128 10.8779 2.09528C10.6077 2.12369 10.3368 2.14694 10.0653 2.16503C9.45708 2.20635 8.84725 2.2254 8.23775 2.22637C7.63883 2.22637 7.03958 2.2099 6.44198 2.17148C6.16933 2.15405 5.89733 2.13187 5.626 2.10496C5.50258 2.09237 5.37948 2.07914 5.2564 2.06428L5.13925 2.04976L5.11379 2.04621L4.99235 2.0291C4.74417 1.9926 4.496 1.95064 4.25048 1.89994C4.22571 1.89457 4.20354 1.88114 4.18765 1.86182C4.17177 1.8425 4.16312 1.81848 4.16312 1.79372C4.16312 1.76896 4.17177 1.74493 4.18765 1.72562C4.20354 1.70631 4.22571 1.69286 4.25048 1.68749H4.25512C4.46789 1.64326 4.68229 1.60548 4.89737 1.57255C4.96908 1.56157 5.04098 1.55081 5.11312 1.54026H5.1151C5.24977 1.53155 5.38512 1.50798 5.51912 1.49248C6.68508 1.37414 7.85796 1.33379 9.02958 1.37172C9.59837 1.38787 10.1668 1.42048 10.733 1.47666C10.8548 1.48893 10.9759 1.50184 11.097 1.51637C11.1433 1.52186 11.19 1.52832 11.2366 1.53381L11.3306 1.54704C11.6046 1.58687 11.8771 1.63519 12.1482 1.69202C12.5499 1.77725 13.0658 1.80502 13.2445 2.23444C13.3014 2.37069 13.3272 2.52212 13.3586 2.66514L13.3987 2.84757C13.3997 2.85084 13.4005 2.8542 13.401 2.85758C13.4956 3.28808 13.5904 3.71857 13.6852 4.14907C13.6922 4.18088 13.6923 4.21374 13.6857 4.2456C13.6791 4.27748 13.6658 4.30765 13.6467 4.3343C13.6275 4.36093 13.603 4.38342 13.5746 4.40039C13.5461 4.41735 13.5144 4.4284 13.4814 4.43289H13.4788L13.4208 4.44064L13.3636 4.44805C13.1823 4.47109 13.0007 4.49262 12.819 4.51264C12.4609 4.55246 12.1023 4.58689 11.7432 4.61596C11.0296 4.67385 10.3145 4.71184 9.59804 4.72993C9.23296 4.73939 8.86798 4.74382 8.50312 4.74316C7.05083 4.74205 5.59979 4.65968 4.15717 4.49648C4.00098 4.47841 3.84481 4.45903 3.68862 4.43934C3.80973 4.45452 3.6006 4.42771 3.55825 4.42191C3.45898 4.40834 3.35971 4.39425 3.26044 4.37962C2.92723 4.33085 2.59602 4.2708 2.26346 4.21816C1.86143 4.1536 1.47693 4.18589 1.11328 4.37962C0.814779 4.539 0.573183 4.78341 0.420723 5.08025C0.263879 5.39666 0.217223 5.74116 0.147074 6.08116C0.0769248 6.42114 -0.0322702 6.78695 0.00909134 7.13598C0.0981015 7.88925 0.637789 8.5014 1.41406 8.63831C2.14435 8.76745 2.8786 8.87206 3.61483 8.96118C6.50694 9.3068 9.42873 9.34814 12.3299 9.08452C12.5662 9.06299 12.8021 9.03954 13.0377 9.01413C13.1113 9.00625 13.1857 9.01451 13.2556 9.03834C13.3255 9.06217 13.389 9.10096 13.4416 9.15184C13.4941 9.20273 13.5343 9.26445 13.5592 9.33245C13.5842 9.40048 13.5932 9.47308 13.5856 9.54493L13.5122 10.2417C13.3642 11.6496 13.2161 13.0575 13.0681 14.4652C12.9137 15.9435 12.7583 17.4218 12.6019 18.8998C12.5578 19.3162 12.5137 19.7324 12.4695 20.1484C12.4272 20.5582 12.4212 20.9808 12.3415 21.3857C12.2157 22.0224 11.774 22.4134 11.1294 22.5564C10.5389 22.6876 9.93562 22.7565 9.33002 22.7617C8.65864 22.7653 7.9876 22.7362 7.31621 22.7398C6.59948 22.7437 5.72163 22.6792 5.16839 22.1586C4.68229 21.7015 4.61512 20.9856 4.54894 20.3666C4.46071 19.5471 4.37325 18.7279 4.28654 17.9086L3.80013 13.3532L3.48546 10.4057C3.48015 10.357 3.47487 10.3089 3.4699 10.2598C3.43217 9.90817 3.17706 9.56399 2.77502 9.58174C2.4309 9.59659 2.03979 9.88202 2.08015 10.2598L2.31342 12.445L2.79587 16.9652C2.93331 18.2492 3.0704 19.5333 3.20717 20.8177C3.23365 21.0637 3.25846 21.3105 3.28625 21.5565C3.43748 22.901 4.48971 23.6255 5.79277 23.8294C6.55383 23.949 7.3334 23.9735 8.10571 23.9857C9.09575 24.0013 10.0957 24.0385 11.0695 23.8634C12.5126 23.605 13.5952 22.6649 13.7498 21.2065C13.7939 20.7854 13.838 20.3643 13.8821 19.9431C14.0288 18.55 14.1753 17.1568 14.3215 15.7635L14.8 11.211L15.0194 9.12456C15.0303 9.02109 15.0751 8.92382 15.1471 8.84713C15.2191 8.77043 15.3145 8.71838 15.4191 8.69868C15.8317 8.62022 16.2262 8.48622 16.5197 8.17982C16.9869 7.69197 17.0799 7.05591 16.9148 6.41468ZM1.39289 6.86477C1.39917 6.86186 1.38759 6.91448 1.38263 6.93902C1.38164 6.90189 1.38362 6.86895 1.39289 6.86477ZM1.43293 7.16698C1.43623 7.1647 1.44616 7.17763 1.45642 7.19313C1.44087 7.17891 1.43094 7.16827 1.43259 7.16698H1.43293ZM1.4723 7.21766C1.48653 7.24123 1.49414 7.25609 1.4723 7.21766V7.21766ZM1.55138 7.28029H1.55337C1.55337 7.28257 1.55701 7.28482 1.55833 7.28709C1.55614 7.28459 1.5537 7.28232 1.55105 7.28029H1.55138ZM15.3999 7.18666C15.2517 7.3242 15.0283 7.38813 14.8076 7.42011C12.3325 7.7785 9.8214 7.95995 7.31917 7.87988C5.52838 7.82015 3.75646 7.62609 1.98354 7.38168C1.80981 7.35779 1.62153 7.32679 1.50208 7.20184C1.27707 6.96614 1.38759 6.49152 1.44616 6.20675C1.49977 5.94586 1.60234 5.59814 1.92033 5.561C2.41667 5.50418 2.99308 5.70855 3.48413 5.7812C4.07533 5.86923 4.66873 5.93973 5.26433 5.99268C7.80625 6.2187 10.3909 6.1835 12.9215 5.85289C13.3828 5.79239 13.8424 5.72212 14.3004 5.64205C14.7084 5.57068 15.1607 5.4367 15.4072 5.849C15.5763 6.12991 15.5988 6.50573 15.5727 6.82311C15.5646 6.96139 15.5027 7.09145 15.3996 7.18666H15.3999Z" fill="#0D0C22"/>
</g>
<defs>
<clipPath id="clip0">
<rect width="17" height="24" fill="white"/>
</clipPath>
</defs>
</svg>
